<?xml version="1.0" standalone="no"?>
<!DOCTYPE svg PUBLIC "-//W3C//DTD SVG 20010904//EN"
 "http://www.w3.org/TR/2001/REC-SVG-20010904/DTD/svg10.dtd">
<svg version="1.0" xmlns="http://www.w3.org/2000/svg"
 width="267.000000pt" height="200.000000pt" viewBox="0 0 267.000000 200.000000"
 preserveAspectRatio="xMidYMid meet">

<g transform="translate(0.000000,200.000000) scale(0.100000,-0.100000)"
fill="#000000" stroke="none">
<path d="M1140 1186 c0 -2 7 -7 16 -10 8 -3 12 -2 9 4 -6 10 -25 14 -25 6z"/>
<path d="M1198 1104 c70 -72 107 -154 122 -267 17 -135 -6 -181 -95 -198 -58
-11 -132 4 -162 33 -47 44 -22 114 45 129 26 6 26 7 -6 8 -71 2 -107 -84 -60
-144 55 -70 150 -73 373 -10 88 25 175 45 193 45 44 0 82 -38 83 -82 l1 -33
19 42 c21 47 16 75 -21 108 -30 27 -114 24 -209 -9 -41 -14 -76 -26 -78 -26
-2 0 -3 17 -3 39 0 63 75 181 135 213 16 8 14 4 -6 -18 -31 -33 -79 -103 -79
-114 0 -15 33 -20 69 -10 52 14 99 67 127 144 13 37 24 73 24 81 0 37 -159 4
-212 -44 -23 -21 -34 -42 -43 -86 -6 -32 -16 -60 -21 -62 -6 -2 -16 19 -23 47
-19 72 -80 160 -152 219 -35 28 -66 51 -69 51 -4 0 18 -25 48 -56z"/>
<path d="M1236 997 c3 -10 9 -15 12 -12 3 3 0 11 -7 18 -10 9 -11 8 -5 -6z"/>
<path d="M1018 655 c13 -25 49 -58 82 -76 43 -22 163 -14 307 20 152 36 217
40 232 14 9 -16 10 -16 11 4 0 13 -11 29 -26 39 -22 15 -34 16 -92 6 -37 -6
-118 -25 -181 -42 -168 -45 -244 -39 -309 22 -22 21 -31 26 -24 13z"/>
</g>
</svg>
